<svg xmlns="http://www.w3.org/2000/svg" width="43.438" height="42.365" viewBox="0 0 11.493 11.209"  xmlns:v="https://vecta.io/nano"><path d="M5.746 0A5.75 5.75 0 0 0 0 5.747c0 2.539 1.646 4.693 3.93 5.453.288.053.392-.125.392-.277l-.008-.977c-1.598.347-1.936-.77-1.936-.77-.261-.664-.638-.841-.638-.841-.522-.356.04-.349.04-.349.577.041.88.592.88.592.513.878 1.345.624 1.673.477.052-.371.201-.624.365-.768-1.276-.145-2.618-.638-2.618-2.84a2.22 2.22 0 0 1 .592-1.542c-.059-.145-.256-.73.056-1.521 0 0 .482-.155 1.58.589.458-.128.95-.191 1.439-.194a5.49 5.49 0 0 1 1.439.194c1.097-.744 1.579-.589 1.579-.589.314.791.116 1.375.058 1.521.368.401.591.915.591 1.542 0 2.208-1.344 2.693-2.624 2.836.206.177.39.528.39 1.064l-.007 1.577c0 .154.104.333.395.277A5.75 5.75 0 0 0 5.746 0" fill="#fff" fill-rule="evenodd"/></svg>