<svg xmlns="http://www.w3.org/2000/svg" viewBox="0 0 512 512"  width="256" height="256" opacity="1" xmlns:v="https://vecta.io/nano"><path d="M256 0C114.617 0 0 114.614 0 256s114.617 256 256 256 256-114.614 256-256S397.386 0 256 0zm-76.59 104v304h-23.562c-19.446 0-35.352-15.906-35.352-35.348V139.348c0-19.442 15.906-35.348 35.352-35.348h23.562zm27.102 304V104h53.023v125.629l38.882-19.934 26.551 13.61 12.176 6.324v-.082l.16.082V104h18.851c19.442 0 35.348 15.906 35.348 35.348v233.304c0 19.442-15.906 35.348-35.348 35.348H206.512z" fill="#ddd"/></svg>